# Blender 4.5.2 LTS
# www.blender.org
mtllib test-cart.mtl
o Cube
v 0.883021 1.000000 -0.883021
v 1.000000 -1.000000 -1.000000
v 0.883021 1.000000 0.883021
v 1.000000 -1.000000 1.000000
v -0.883021 1.000000 -0.883021
v -1.000000 -1.000000 -1.000000
v -0.883021 1.000000 0.883021
v -1.000000 -1.000000 1.000000
v 1.000000 1.000000 1.000000
v -1.000000 1.000000 1.000000
v 1.000000 1.000000 -1.000000
v -1.000000 1.000000 -1.000000
v 0.883021 -0.803899 0.883021
v -0.883021 -0.803899 0.883021
v 0.883021 -0.803899 -0.883021
v -0.883021 -0.803899 -0.883021
v -0.758105 -0.758105 1.000000
v -0.758105 0.758105 1.000000
v 0.758105 0.758105 1.000000
v 0.758105 -0.758105 1.000000
v 0.883021 1.000000 0.883021
v -0.883021 1.000000 0.883021
v 0.883021 -0.803899 0.883021
v -0.883021 -0.803899 0.883021
v 0.883021 -0.803899 -0.883021
v -0.883021 -0.803899 -0.883021
v -1.000000 -1.000000 1.000000
v -1.000000 1.000000 1.000000
v 1.000000 1.000000 1.000000
v 1.000000 -1.000000 1.000000
v -0.758105 -0.758105 1.178365
v -0.758105 0.758105 1.178365
v 0.758105 0.758105 1.178365
v 0.758105 -0.758105 1.178365
v 1.000000 1.177566 1.088783
v -1.000000 1.177566 1.088783
v 0.883021 1.177566 0.971804
v -0.883021 1.177566 0.971804
v 0.758105 0.935671 1.088783
v -0.758105 0.935671 1.088783
v 0.758105 0.935671 1.267148
v -0.758105 0.935671 1.267148
vn 1.0000 -0.0000 -0.0000
vn -0.0000 1.0000 -0.0000
vn -1.0000 -0.0000 -0.0000
vn -0.0000 -1.0000 -0.0000
vn -0.0000 -0.0000 -1.0000
vn -0.0000 -0.0000 1.0000
vn -0.6667 0.3333 -0.6667
vn -0.0000 -0.4472 0.8944
vn 0.4082 -0.4082 0.8165
vn -0.0000 0.4472 -0.8944
vn 0.6667 0.3333 -0.6667
vn -0.4082 -0.4082 0.8165
vt 0.860378 0.514622
vt 0.860378 0.735378
vt 0.000000 0.000000
vt 0.375000 0.000000
vt 0.625000 0.000000
vt 0.625000 0.250000
vt 0.375000 0.250000
vt 0.125000 0.500000
vt 0.375000 0.500000
vt 0.375000 0.750000
vt 0.125000 0.750000
vt 0.625000 0.500000
vt 0.625000 0.750000
vt 0.639622 0.514622
vt 0.639622 0.735378
vt 0.875000 0.500000
vt 0.875000 0.750000
vt 0.405237 0.780237
vt 0.594763 0.780237
vt 0.405237 0.969763
vt 0.594763 0.969763
vt 0.625000 1.000000
vt 0.375000 1.000000
s 0
usemtl Material
f 5/1/1 7/2/1 14/2/1 16/1/1
f 4/3/2 9/3/2 29/3/2 30/3/2
f 8/4/3 10/5/3 12/6/3 6/7/3
f 6/8/4 2/9/4 4/10/4 8/11/4
f 2/9/1 11/12/1 9/13/1 4/10/1
f 6/7/5 12/6/5 11/12/5 2/9/5
f 14/2/2 7/2/2 22/2/2 24/2/2
f 1/14/2 3/15/2 9/13/2 11/12/2
f 7/2/2 5/1/2 12/16/2 10/17/2
f 5/1/2 1/14/2 11/12/2 12/16/2
f 7/2/2 10/17/2 28/17/2 22/2/2
f 10/3/2 8/3/2 27/3/2 28/3/2
f 1/14/6 5/1/6 16/1/6 15/14/6
f 3/15/3 1/14/3 15/14/3 13/15/3
f 20/18/1 19/19/1 33/19/1 34/18/1
f 22/2/7 28/17/7 36/17/7 38/2/7
f 25/14/2 26/1/2 24/2/2 23/15/2
f 22/2/5 21/15/5 23/15/5 24/2/5
f 13/15/2 15/14/2 25/14/2 23/15/2
f 8/11/2 4/10/2 30/10/2 27/11/2
f 16/1/2 14/2/2 24/2/2 26/1/2
f 3/15/2 13/15/2 23/15/2 21/15/2
f 9/13/2 3/15/2 21/15/2 29/13/2
f 15/14/2 16/1/2 26/1/2 25/14/2
f 17/20/6 18/21/6 28/22/6 27/23/6
f 19/19/6 20/18/6 30/10/6 29/13/6
f 32/21/8 33/19/8 41/19/8 42/21/8
f 20/18/6 17/20/6 27/23/6 30/10/6
f 34/18/6 33/19/6 32/21/6 31/20/6
f 33/19/1 19/19/1 39/19/1 41/19/1
f 18/21/3 17/20/3 31/20/3 32/21/3
f 17/20/4 20/18/4 34/18/4 31/20/4
f 37/15/2 38/2/2 36/17/2 35/13/2
f 40/21/6 39/19/6 35/13/6 36/22/6
f 39/19/2 40/21/2 42/21/2 41/19/2
f 19/19/9 29/13/9 35/13/9 39/19/9
f 21/15/10 22/2/10 38/2/10 37/15/10
f 29/13/11 21/15/11 37/15/11 35/13/11
f 28/22/12 18/21/12 40/21/12 36/22/12
f 18/21/3 32/21/3 42/21/3 40/21/3
